<?xml version="1.0" encoding="utf-8"?>
<!-- Generator: Adobe Illustrator 16.0.0, SVG Export Plug-In . SVG Version: 6.00 Build 0)  -->
<!DOCTYPE svg PUBLIC "-//W3C//DTD SVG 1.1//EN" "http://www.w3.org/Graphics/SVG/1.1/DTD/svg11.dtd">
<svg version="1.1" id="Capa_1" xmlns="http://www.w3.org/2000/svg" xmlns:xlink="http://www.w3.org/1999/xlink" x="0px" y="0px"
	 width="512px" height="512px" viewBox="0 0 512 512" enable-background="new 0 0 512 512" xml:space="preserve">
<g id="XMLID_46_" display="none">
	<path id="XMLID_57_" display="inline" fill="#933EC5" d="M323.489,145.222v1.897c0,18.92-13.492,34.759-31.362,38.389
		c1.732,9.996,7.275,18.953,15.956,24.604c10.489,6.834,23.571,7.858,34.977,2.789l28.241-12.535l-31.628-46.737
		c-3.755-5.569-9.855-8.275-16.09-8.407H323.489z"/>
	<path id="XMLID_56_" display="inline" fill="#933EC5" d="M220.96,245.688l-12.329,57.989l50.034,28.06l93.09-24.88
		c1.948-0.516,3.938-0.799,5.928-1.115l-10.496-49.425l-5.976-28.108c-4.32,1.149-8.699,1.938-13.103,1.938
		c-9.679,0-19.285-2.778-27.692-8.24c-12.652-8.224-20.459-21.517-22.331-36.23c-18.646-3.006-32.962-19.079-32.962-38.557v-1.923
		h-2.822c-6.866,0.151-13.508,3.54-17.07,9.989l-66.29,120.626l34.752,19.483L220.96,245.688z"/>
	<path id="XMLID_55_" display="inline" fill="#933EC5" d="M309.43,145.222l-11.186-0.009l-39.063-0.008v1.914
		c0,13.851,11.27,25.122,25.128,25.122c13.851,0,25.12-11.271,25.12-25.122V145.222z"/>
	<path id="XMLID_54_" display="inline" fill="#933EC5" d="M485.408,362.442L379.49,326.519c-7.299-2.48-15.198-2.749-22.682-0.741
		l-100.773,26.918l-121.573-68.161c-18.862-10.613-42.734-3.864-53.305,14.999c-10.579,18.861-3.861,42.716,14.999,53.296
		l135.458,75.953c8.898,4.994,19.403,6.335,29.258,3.67l104.694-27.976l94.697,32.122c4.161,1.415,8.406,2.088,12.577,2.088
		c16.314,0,31.538-10.279,37.073-26.593C516.864,391.617,505.883,369.393,485.408,362.442z"/>
	<path id="XMLID_53_" display="inline" fill="#933EC5" d="M60.215,282.846c3.312,0,6.524-0.427,9.629-1.109
		c11.437-2.521,21.228-9.371,27.527-18.803c4.727-7.091,7.507-15.599,7.507-24.755c0-24.687-20.001-44.681-44.663-44.681
		c-24.68,0-44.682,19.995-44.682,44.681C15.533,262.842,35.534,282.846,60.215,282.846z"/>
	<path id="XMLID_52_" display="inline" fill="#933EC5" d="M477.725,448.268H433.71H277.526h-48.967L72.484,358.48l-35.809-20.602
		c-11.743-6.75-26.677-2.714-33.41,9.015c-6.741,11.711-2.705,26.667,9.006,33.409l197.553,113.643
		c3.711,2.14,7.915,3.262,12.201,3.262h255.7c13.519,0,24.471-10.951,24.471-24.47c0-7.409-3.361-13.966-8.564-18.453
		C489.344,450.582,483.835,448.268,477.725,448.268z"/>
	<path id="XMLID_51_" display="inline" fill="#933EC5" d="M387.798,193.041c0.89-6.776,6.441-12.069,13.458-12.069
		c7.617,0,13.802,6.167,13.802,13.799c0,7.616-6.185,13.801-13.802,13.801c-2.938,0-5.509-1.115-7.74-2.68l-13.934,6.193
		l-30.814,13.666c-2.222,0.99-4.552,1.565-6.857,2.223l12.843,18.996c3.829,5.659,10.088,8.747,16.507,8.747
		c3.304,0,6.625-0.815,9.713-2.529l52.581-29.416c9.605-5.36,13.019-17.495,7.657-27.101c-2.913-5.211-7.865-8.39-13.284-9.54
		c-1.374-4.787-3.913-9.048-7.4-12.41c-5.01-4.82-11.777-7.816-19.27-7.816c-11.893,0-21.981,7.507-25.985,17.994
		c-1.173,3.089-1.89,6.393-1.89,9.872c0,1.533,0.217,3.006,0.458,4.472L387.798,193.041z"/>
	<path id="XMLID_50_" display="inline" fill="#933EC5" d="M259.182,128.94c6.982,4.161,15.04,6.717,23.763,6.717
		c9.854,0,18.96-3.104,26.485-8.323c5.861-4.063,10.579-9.506,14.059-15.773c3.713-6.684,6.02-14.275,6.02-22.465
		c0-5.801-1.191-11.303-3.139-16.414c-14.199,3.579-28.766,5.551-43.424,5.551c-14.643,0-29.215-1.973-43.432-5.551
		c-1.94,5.12-3.121,10.613-3.121,16.414c0,10.087,3.278,19.377,8.73,26.993C248.852,121.309,253.656,125.637,259.182,128.94z"/>
	<path id="XMLID_47_" display="inline" fill="#933EC5" d="M240.155,59.988c14.017,3.762,28.4,5.643,42.791,5.643
		c14.394,0,28.783-1.881,42.793-5.643c1.764-0.475,2.838-2.281,2.404-4.063c-2.488-10.379-5.003-28.042-7.5-38.539
		c-0.209-0.89-0.766-1.648-1.548-2.123c-0.532-0.316-1.133-0.474-1.73-0.474c-0.292,0-0.592,0.033-0.866,0.108
		c-11.004,2.888-22.281,4.328-33.562,4.328c-11.278,0-22.547-1.44-33.543-4.328c-0.283-0.075-0.574-0.108-0.857-0.108
		c-0.609,0-1.207,0.158-1.74,0.474c-0.782,0.475-1.339,1.233-1.548,2.114c-2.506,10.497-5.018,28.167-7.507,38.555
		C237.317,57.708,238.373,59.514,240.155,59.988z M271.118,35.126h5.526V29.6h12.586v5.526h5.535v12.593h-5.535v5.519h-12.586
		v-5.519h-5.526V35.126z"/>
</g>
<g>
	<path fill-rule="evenodd" clip-rule="evenodd" fill="#933EC5" d="M316.51,261.825c7.71-7.855,14.388-16.388,14.368-28.251
		c-0.017-10.313-3.728-15.785-13.464-19.211c-4.146-1.458-8.529-2.226-12.679-3.67c-6.058-2.106-10.218-5.671-9.205-13.023
		c0.243-1.774-0.064-4.786-1.146-5.393c-6.151-3.445-12.368-7.126-19.038-9.183c-6.475-1.995-9.557-5.82-11.57-11.829
		c-4.97-14.824-5.098-14.18-19.772-13.475c-20.13,0.965-39.248-0.527-56.06-15.129c-16.384-14.226-36.676-17.311-56.958-8.473
		c-23.455,10.221-36.56,28.891-38.542,54.53c-2.57,33.233,15.427,60.474,45.567,65.36c13.419,2.175,27.851-1.632,41.791-3.038
		c7.859-0.793,15.62-2.642,23.484-3.286c19.234-1.576,34.69,6.876,48.522,19.192c7.02,6.249,13.845,12.733,21.105,18.684
		c2.209,1.81,5.587,2.194,8.429,3.23c1.046,2.095,1.546,4.925,3.224,6.173c22.151,16.471,47.013,18.638,73.003,12.681
		c19.148-4.388,38.059-9.817,57.187-14.332c18.12-4.275,36.461-6.62,55.009-2.64c16.85,3.615,29.173,14.231,32.705,28.492
		c-15.259-11.661-32.349-13.437-50.381-12.855c-23.725,0.763-45.782,7.49-66.581,17.982c-24.744,12.486-50.015,18.204-77.511,11.357
		c15.254,6.337,30.993,12.247,47.35,8.459c14.405-3.337,28.11-9.764,42.039-15.058c33.277-12.649,62.463-5.97,86.529,19.972
		c10.513,11.33,20.32,31.915,20.438,42.889c-35.511-54.606-106.569-57.677-142.988-21.162c18.998,1.028,38.069,0.012,56.982,1.31
		c19.796,1.358,36.508,10.366,49.01,26.265c11.378,14.463,14.588,41.044,6.279,55.125c1.245-14.901-1.02-28.2-12.146-38.527
		c-10.241-9.506-22.691-14.279-36.234-16.631c-29.699-5.159-58.529-0.128-86.936,8.002c-65.76,18.824-131.969,30.516-200.594,17.469
		c-25.645-4.874-50.181-12.185-72.669-25.45c-51.249-30.229-74.362-83.179-61.61-140.521
		c11.195-50.355,39.553-89.574,78.931-121.689c2.518-2.053,5.625-5.055,5.927-7.887c2.474-23.191,16.761-36.729,36.512-45.901
		c27.614-12.819,57.295-14.57,87.008-15.271c34.635-0.816,68.242,6.196,101.755,14.196c34.578,8.254,69.427,15.939,105.254,14.91
		c28.424-0.815,53.194-9.514,66.837-37.739c-0.217,3.127-0.552,6.244-1.786,8.952c-7.642,16.772-20.446,27.888-38.216,32.566
		c-19.11,5.032-38.423,9.3-58.374,14.075c23.125,14.016,46.944,25.041,74.526,20.796c7.094-1.091,14.353-6.31,19.851-11.438
		c9.49-8.854,14.52-20.416,13.979-33.975c4.043,16.804,0.051,32.289-8.37,46.344c-16.846,28.115-42.328,43.034-75.022,46.093
		c33.519,9.49,66.795,18.243,99.744-8.444c-1.265,13.215-1.481,23.53-3.347,33.538c-7.004,37.614-26.414,64.79-66.116,71.858
		c-37.386,6.655-75.03,10.526-112.848,1.867c-9.533-2.182-19.428-2.782-29.156-4.106
		C305.876,271.696,311.432,266.996,316.51,261.825z M125.053,293.772c17.74-0.058,35.495-3.49,53.193-5.808
		c11.334-1.483,22.545-3.917,33.871-5.479c8.602-1.187,15.841,2.045,22.708,7.385c20.864,16.225,42.34,31.408,68.471,38.452
		c16.485,4.442,32.227,2.858,48.459-2.016c34.104-10.239,68.531-19.39,100.791-28.418c-19.389-2.216-40.798-0.25-61.772,5.894
		c-25.121,7.358-50.059,13.829-76.885,12.062c-21.254-1.398-39.557-6.653-54.174-22.865c-16.21-17.976-35.208-30.541-60.972-26.825
		c-10.434,1.505-20.709,4.081-31.086,6.006c-9.214,1.708-18.426,3.522-27.714,4.699c-20.364,2.577-36.764-5.048-49.99-20.303
		c-1.832-2.112-3.799-4.107-6.176-6.668C82.789,274.436,100.24,293.849,125.053,293.772z M370.251,143.946
		c15.56,13.026,34.025,15.539,53.083,11.551c13.843-2.897,27.221-8.018,40.705-13.581c-44.117,3.319-82.875-17.514-124.867-25.684
		C349.792,125.743,359.755,135.162,370.251,143.946z M408.899,224.338c-12.367-3.034-25.312-3.725-39.188-5.626
		c27.886,47.229,67.96,37.462,95.643,6.977C445.023,234.646,427.157,228.813,408.899,224.338z M89.654,338.398
		c21.53,26.733,50.113,42.258,83.722,45.177c30.814,2.677,61.99,1.465,93.006,1.386c12.228-0.031,24.45-1.634,36.624-4.398
		c-15.347,0-30.697-0.019-46.047,0.004c-31.089,0.046-62.17-0.029-92.736-6.916c-27.687-6.241-53.015-16.852-72.597-38.512
		c-13.744-15.199-21.439-33.296-26.922-52.66C67.252,303.668,76.456,322.009,89.654,338.398z"/>
</g>
</svg>
