<?xml version="1.0" encoding="utf-8"?>
<!-- Generator: Adobe Illustrator 16.0.0, SVG Export Plug-In . SVG Version: 6.00 Build 0)  -->
<!DOCTYPE svg PUBLIC "-//W3C//DTD SVG 1.1//EN" "http://www.w3.org/Graphics/SVG/1.1/DTD/svg11.dtd">
<svg version="1.1" id="Layer_1" xmlns="http://www.w3.org/2000/svg" xmlns:xlink="http://www.w3.org/1999/xlink" x="0px" y="0px"
	 width="512px" height="512px" viewBox="-149.5 -217 512 512" enable-background="new -149.5 -217 512 512" xml:space="preserve">
<g>
	<g>
		<path fill="#820A1E" d="M8.098,39.563c-64.825-80.548-82.436-160.56-47.116-214.016c17.827-26.949,48.044-43.306,79.016-42.519
			c26.304,0.613,49.955,13.558,66.043,35.856c16.088-22.294,39.737-35.248,66.039-35.856c30.91-0.678,61.188,15.57,79.014,42.519
			c33.885,51.271,18.425,128.529-41.346,206.664l-8.868-6.794c56.75-74.178,72.036-146.587,40.893-193.703
			c-15.715-23.782-42.324-38.106-69.435-37.526c-25.506,0.588-47.344,13.989-61.51,37.727l-4.787,8.034l-4.797-8.034
			c-14.159-23.738-36-37.139-61.506-37.727c-27.194-0.674-53.713,13.744-69.442,37.526C-62.207-119.104-44.823-44.015,16.804,32.568
			L8.098,39.563z"/>
	</g>
	<path fill="#231F20" d="M102.784-137.703l12.668,59.617l-7.828-3.255L96.39-144.133C96.39-144.133,101.543-142.553,102.784-137.703
		"/>
	<path fill="#820A1E" d="M188.11,31.509c0,5.672-4.368,7.256-5,7.417c-2.04,0.489-49.416,13.798-54.778,14.939l-1.43,0.358
		c-4.652,1.029-6.004-0.279-8.345-6.463c-0.909-2.438-1.155-4.016-1.155-5.063c0-0.903,0.164-1.305,0.246-1.417
		c0.079-0.091,0.155-0.121,0.155-0.157c1.504,0.514,6.988,2.299,6.988,2.299c0.678,0.274,1.348,0.274,2.07,0.034
		c1.51-0.436,40.506-11.39,45.638-13.374c5.318-2.12,5.916-9.979,5.916-11.513V4.067c0-1.785-1.428-3.223-3.184-3.223
		c-1.822,0-3.254,1.434-3.254,3.223V18.57c0,2.529-1.198,5.311-1.832,5.556c-3.576,1.43-28.748,8.224-41.666,12.157
		c-0.108-0.043-3.688-46.206,4.81-64.477l-11.236-12.821l-1.628-8.063l15.404,5.51c3.224,8.074,9.936,13.637,17.71,13.637
		c2.59,0,4.844-0.645,7.202-1.831c0,0-0.522,2.817,1.582,4.091l15.64,8.852c3.388,1.709,10.141,9.176,10.141,22.886v27.442H188.11z
		 M153.544-71.766c7.282,0,13.196,7.975,13.196,17.75c0,9.779-5.914,17.71-13.196,17.71c-7.302,0-13.266-7.927-13.266-17.71
		C140.278-63.791,146.242-71.766,153.544-71.766 M97.901-28.204l-16.093-12.82c0,0,2.08-12.075,3.196-19.389
		c3.644,2.94,7.461,4.894,12.901,4.854c5.362,0.04,9.253-1.914,12.909-4.854C111.93-53.098,114-41.023,114-41.023L97.901-28.204z
		 M77.762-89.96c0-4.925,0.869-9.574,2.381-13.583c5.006-0.713,12.079-1.947,17.759-1.947c5.608,0,12.749,1.23,17.675,1.947
		c1.521,4.01,2.464,8.658,2.464,13.583c0,8.696-3.492,16.758-8.1,22.123c-2.305,2.62-6.909,5.849-12.035,5.849
		c-5.162,0-9.803-3.229-12.112-5.849C81.191-73.202,77.762-81.264,77.762-89.96 M97.901,100.692l21.486,6.877l-21.486,17.271
		l-16.093-12.873C85.942,100.657,97.901,100.692,97.901,100.692 M181.99-23.594l-14.849-8.612v-4.292
		c3.845-4.363,5.942-10.606,5.942-17.523c0-13.302-8.768-24.068-19.54-24.068c-10.792,0-19.62,10.762-19.62,24.068
		c0,0.798,0.038,1.674,0.076,2.469l-15.164-5.634l-1.622-9.654c4.328-6.284,6.466-14.304,6.466-23.123
		c0-4.411-8.1-52.589-8.1-52.589s-0.836-3.379-3.174-4.849c-3.103-1.269-7.081-3.216-14.501-3.216
		c-7.422,0-11.477,1.947-14.494,3.216c-2.377,1.47-3.26,4.849-3.26,4.849s-8.024,48.178-8.024,52.589
		c0,8.819,2.115,16.839,6.443,23.123l-1.589,9.654L30.584-31.491c0,0-13.268,6.115-13.268,19.462v64.417
		c0,0-1.271,11.679,13.669,26.569l66.874,53.952l31.146-25.113l-3.974-4.836L97.86,94.259L55.046,59.748
		c-9.528-9.58-8.734-17.002-8.734-17.002V4.067c0-1.789,1.505-3.228,3.251-3.228c1.75,0,3.229,1.436,3.229,3.228l-0.05,38.679
		c0,0-0.674,4.448,7.708,12.838l37.456,30.651l32.217-26.534l41.864-11.748v4.438c0,0,1.149,9.142-12.592,22.848L130.004,98.99
		l3.968,4.798l30.794-24.831c14.891-14.891,13.662-26.569,13.662-26.569V46.47c3.98-0.906,6.553-1.547,7.145-1.666
		c1.078-0.313,8.978-3.174,8.978-13.3V4.057C194.536-12.896,184.65-22.442,181.99-23.594"/>
	<g>
		<path fill="#231F20" d="M-50.413,177.527c-0.261-3.146-1.918-4.654-5.105-4.654c-2.456,0-4.917,1.279-4.917,3.968
			c0,3.311,2.981,3.71,5.627,4.323c4.679,1.208,11.601,2.531,11.601,8.718c0,7.613-6.643,10.255-13.256,10.255
			c-7.04,0-12.026-2.715-11.814-10.468h6.735c-0.261,3.401,1.724,5.694,5.149,5.694c2.667,0,6.142-0.778,6.142-4.082
			c0-3.619-4.369-3.876-7.039-4.562c-4.278-1.067-10.181-3.024-10.181-8.481c0-7.041,6.471-10.133,12.807-10.133
			c5.954,0,10.581,3.236,10.581,9.427h-6.33V177.527z"/>
		<path fill="#231F20" d="M-40.231,199.501v-30.768h6.359v11.896l0.093,0.088c1.323-1.955,3.304-3.258,6.548-3.258
			c2.126,0,6.26,1.608,7.039,4.703c0.347,1.323,0.397,2.696,0.397,3.399v13.939h-6.38v-12.874c-0.02-2.297-0.658-4.892-3.825-4.892
			c-1.979,0-3.731,1.795-3.823,4.892v12.874H-40.231z"/>
		<path fill="#231F20" d="M-10.626,178.118l0.144,3.875h0.092c1.374-3.377,4.09-4.232,7.278-4.157v5.694h-2.739
			c-1.088,0.077-2.507,0.684-3.12,1.584c-0.712,1.18-0.85,2.384-0.85,3.787v10.602h-6.376l-0.053-17.126
			c0-0.902-0.116-2.695-0.186-4.253L-10.626,178.118L-10.626,178.118z"/>
		<path fill="#231F20" d="M-1.533,199.52h6.41v-21.422h-6.41V199.52z M-1.741,174.242h6.825v-5.509h-6.825V174.242z"/>
		<g>
			<path fill="#231F20" d="M14.63,180.58l0.119,0.117c1.277-1.936,3.316-3.238,6.548-3.238c2.126,0,6.256,1.608,7.024,4.703
				c0.332,1.323,0.418,2.696,0.418,3.399v13.939h-6.384v-12.874c-0.046-2.297-0.685-4.892-3.842-4.892
				c-2.016,0-3.761,1.795-3.811,4.892v12.874H8.305v-21.383h6.325V180.58L14.63,180.58z"/>
			<path fill="#231F20" d="M45.633,186.245c0-2.339-0.638-4.51-3.755-4.51c-2.932,0-3.59,2.171-3.689,4.51H45.633z M38.188,190.523
				c0,2.765,0.397,5.37,3.689,5.37c2.226,0,3.305-0.831,3.917-2.795h5.746c-0.542,5.292-4.68,7.038-9.663,7.038
				c-7.331,0-10.281-4.13-10.281-11.29c0-6.428,3.759-11.366,10.281-11.366c3.984,0,7.319,1.351,9.12,5.104
				c0.597,1.207,0.874,2.48,1.042,3.855c0.187,1.297,0.187,2.669,0.187,4.083H38.188z"/>
			<path fill="#231F20" d="M60.305,178.118l0.146,3.875h0.093c1.351-3.377,4.067-4.232,7.278-4.157v5.694h-2.759
				c-1.095,0.077-2.49,0.684-3.129,1.584c-0.683,1.18-0.825,2.384-0.845,3.787v10.602h-6.36l-0.047-17.126
				c0-0.902-0.14-2.695-0.192-4.253L60.305,178.118L60.305,178.118z"/>
			<path fill="#231F20" d="M81.473,183.835c-0.093-1.463-1.442-2.1-2.879-2.1c-1.759,0-2.553,0.518-2.553,1.913
				c0,3.381,12.218,1.464,12.218,9.471c0,4.683-5.697,7.046-9.666,7.046c-5.012,0-9.357-1.967-9.427-6.877h5.933
				c0.113,1.673,1.6,2.573,3.488,2.573c1.728,0,3.072-0.711,3.072-2.36c0-1.725-3.072-2.438-4.372-2.745
				c-4.085-0.967-7.862-1.836-7.862-6.85c0-4.47,5.411-6.429,9.161-6.429c4.52,0,8.346,1.611,8.648,6.357H81.473z"/>
		</g>
		<polygon fill="#231F20" points="100.617,199.501 100.617,168.733 107.226,168.733 107.226,180.884 118.848,180.884 
			118.848,168.733 125.54,168.733 125.54,199.501 118.946,199.501 118.946,186.009 107.226,186.009 107.226,199.501 		"/>
		<g>
			<path fill="#231F20" d="M139.362,195.887c3.922,0,4.534-3.691,4.534-7.092c0-3.377-0.612-7.06-4.534-7.06
				c-3.918,0-4.53,3.683-4.53,7.06C134.832,192.199,135.444,195.887,139.362,195.887 M139.362,200.137
				c-6.994,0-11.177-4.582-11.177-11.342c0-6.733,4.183-11.317,11.177-11.317c6.998,0,11.2,4.584,11.2,11.317
				C150.563,195.555,146.36,200.137,139.362,200.137"/>
			<path fill="#231F20" d="M164.218,183.835c-0.094-1.463-1.464-2.1-2.899-2.1c-1.754,0-2.532,0.518-2.532,1.913
				c0,3.381,12.192,1.464,12.192,9.471c0,4.683-5.692,7.046-9.66,7.046c-4.992,0-9.334-1.967-9.433-6.877h5.95
				c0.098,1.673,1.606,2.573,3.482,2.573c1.768,0,3.069-0.711,3.069-2.36c0-1.725-3.069-2.438-4.378-2.745
				c-4.063-0.967-7.84-1.836-7.84-6.85c0-4.47,5.386-6.429,9.148-6.429c4.512,0,8.336,1.611,8.668,6.357H164.218z"/>
			<path fill="#231F20" d="M184.44,195.864c4.094,0,4.586-3.759,4.586-7.066c0-3.282-0.492-7.063-4.586-7.063
				c-3.45,0-4.58,4.139-4.58,7.063C179.86,191.727,180.99,195.864,184.44,195.864 M179.86,180.58h0.046
				c1.229-1.775,3.527-3.121,5.716-3.121c6.668,0,10.016,5.593,10.016,11.339c0,5.505-2.924,11.369-9.188,11.369
				c-2.76,0-5.154-1.161-6.548-3.688h-0.048v11.196h-6.402v-25.3c0-1.397-0.114-2.862-0.21-4.257h6.478L179.86,180.58z"/>
		</g>
		<path fill="#231F20" d="M198.378,199.52h6.414v-21.422h-6.414V199.52z M198.146,174.242h6.852v-5.509h-6.852V174.242z"/>
		<g>
			<path fill="#231F20" d="M210.788,178.118v-4.229l6.382-2.293v6.521h4.82v4.257h-4.82v9.948c0,2.806,0.446,3.57,2.641,3.57
				c0.689,0,1.376-0.095,2.056-0.144v3.751c-0.729,0.334-4.152,0.666-5.028,0.666c-4.99,0-6.05-2.619-6.05-7.281v-10.511h-4.32
				v-4.257H210.788z"/>
			<path fill="#231F20" d="M229.196,192.816c0,1.795,1.317,3.045,3.107,3.045c3.555,0,3.646-3.901,3.646-6.428
				C233.772,189.413,229.196,189.366,229.196,192.816 M224.038,184.167c0.048-2.698,1.184-4.349,2.89-5.318
				c1.744-1.017,4.013-1.371,6.307-1.371c4.298,0,9.12,1.59,9.12,8.008v11.679c0.046,1.063,0.216,1.701,0.306,2.337h-5.766
				c-0.093-0.973-0.19-1.953-0.19-2.854h-0.09c-1.437,2.482-3.688,3.52-6.572,3.52c-3.99,0-6.968-2.345-6.968-6.503
				c0-1.491,0.684-5.126,4.56-6.753c2.548-1.137,5.796-1.259,8.316-1.182v-2.009c0-0.877-0.658-2.625-2.93-2.625
				c-2.223,0-2.933,2.107-2.839,3.076L224.038,184.167L224.038,184.167z"/>
		</g>
		<rect x="246.036" y="168.733" fill="#231F20" width="6.408" height="30.789"/>
		<g>
			<path fill="#231F20" d="M266.996,183.835c-0.094-1.463-1.458-2.1-2.904-2.1c-1.748,0-2.527,0.518-2.527,1.913
				c0,3.381,12.191,1.464,12.191,9.471c0,4.683-5.689,7.046-9.664,7.046c-4.981,0-9.334-1.967-9.428-6.877h5.952
				c0.098,1.673,1.607,2.573,3.476,2.573c1.772,0,3.07-0.711,3.07-2.36c0-1.725-3.07-2.438-4.368-2.745
				c-4.074-0.967-7.844-1.836-7.844-6.85c0-4.47,5.374-6.429,9.136-6.429c4.514,0,8.349,1.611,8.674,6.357H266.996z"/>
		</g>
		<g>
			<path fill="#231F20" d="M105.668,243.078h6.38v-21.422h-6.38V243.078z M105.46,217.796h6.822v-5.509h-6.822V217.796z"/>
			<rect x="115.38" y="212.287" fill="#231F20" width="6.408" height="30.791"/>
			<path fill="#231F20" d="M5.111,215.903c-4.491-0.487-4.586,1.541-4.398,5.769h3.854v4.259H0.713v17.126h-6.423v-17.126h-3.19
				v-4.259h3.19c-0.147-6.096,0.38-10.013,7.32-10.013c1.183,0,2.367,0.114,3.5,0.28V215.903z"/>
			<path fill="#231F20" d="M15.551,239.447c3.929,0,4.583-3.694,4.583-7.093c0-3.377-0.654-7.067-4.583-7.067
				c-3.896,0-4.534,3.69-4.534,7.067C11.017,235.753,11.655,239.447,15.551,239.447 M15.551,243.69
				c-6.962,0-11.148-4.582-11.148-11.341c0-6.735,4.186-11.316,11.148-11.316c7,0,11.196,4.581,11.196,11.316
				C26.747,239.114,22.551,243.69,15.551,243.69"/>
			<path fill="#231F20" d="M34.96,221.672l0.115,3.881h0.093c1.369-3.383,4.108-4.239,7.267-4.16v5.69h-2.734
				c-1.062,0.078-2.504,0.69-3.113,1.587c-0.689,1.178-0.815,2.382-0.86,3.788v10.599h-6.375v-17.126
				c0-0.901-0.141-2.692-0.233-4.254L34.96,221.672L34.96,221.672z"/>
			<path fill="#231F20" d="M72.117,222.27c0.051-3.238-1.909-5.843-5.857-5.843c-4.72,0-5.905,6.947-5.905,11.252
				c0,4.322,1.182,11.265,5.905,11.265c3.948,0,5.908-2.615,5.857-5.858h7.04c-0.307,7.7-5.858,10.605-12.897,10.605
				c-8.933,0-12.949-7.035-12.949-16.012c0-9.012,4.016-16.046,12.949-16.046c7.039,0,12.591,2.905,12.897,10.637H72.117z"/>
			<path fill="#231F20" d="M81.83,243.057v-30.77h6.334v11.896l0.114,0.088c1.328-1.955,3.315-3.259,6.553-3.259
				c2.122,0,6.256,1.608,7.041,4.705c0.332,1.324,0.425,2.693,0.425,3.399v13.939h-6.407v-12.876
				c-0.047-2.294-0.68-4.894-3.824-4.894c-2.013,0-3.74,1.796-3.826,4.894v12.876H81.83z"/>
			<path fill="#231F20" d="M135.722,239.447c3.45,0,4.586-4.142,4.586-7.067c0-2.946-1.136-7.093-4.586-7.093
				c-4.088,0-4.58,3.809-4.58,7.093C131.142,235.638,131.634,239.447,135.722,239.447 M140.308,212.287h6.402v26.516
				c0,1.411,0.12,2.858,0.214,4.27h-6.376c-0.1-1.052-0.193-1.997-0.193-3.014h-0.091c-1.396,2.495-3.79,3.632-6.544,3.632
				c-6.27,0-9.193-5.837-9.193-11.316c0-5.769,3.354-11.341,10.018-11.341c2.196,0,4.482,1.324,5.67,3.119h0.094V212.287z"/>
			<path fill="#231F20" d="M155.666,221.672l0.098,3.881h0.093c1.372-3.383,4.104-4.239,7.296-4.16v5.69h-2.782
				c-1.068,0.078-2.486,0.69-3.096,1.587c-0.66,1.178-0.83,2.382-0.856,3.788v10.599h-6.355l-0.045-17.126
				c0-0.901-0.119-2.692-0.212-4.254L155.666,221.672L155.666,221.672z"/>
			<path fill="#231F20" d="M177.802,229.801c0-2.339-0.638-4.514-3.756-4.514c-2.93,0-3.544,2.175-3.638,4.514H177.802z
				 M170.408,234.082c0,2.765,0.374,5.365,3.638,5.365c2.22,0,3.362-0.831,3.975-2.792h5.712c-0.57,5.292-4.679,7.035-9.687,7.035
				c-7.278,0-10.252-4.129-10.252-11.289c0-6.429,3.752-11.368,10.252-11.368c4.021,0,7.356,1.354,9.116,5.104
				c0.616,1.21,0.902,2.481,1.094,3.856c0.164,1.296,0.164,2.671,0.164,4.088H170.408z"/>
			<path fill="#231F20" d="M193.158,224.136l0.094,0.114c1.309-1.934,3.342-3.237,6.548-3.237c2.132,0,6.294,1.608,7.04,4.705
				c0.336,1.324,0.428,2.693,0.428,3.399v13.939h-6.378v-12.876c-0.05-2.294-0.686-4.894-3.844-4.894
				c-1.994,0-3.768,1.796-3.84,4.894v12.876h-6.402v-21.385h6.358L193.158,224.136L193.158,224.136z"/>
			<path fill="#231F20" d="M214.57,220.868c0.964,0,2.292,0.15,2.292-1.126c0-0.97-0.805-1.095-1.608-1.095h-1.888v2.221H214.57z
				 M213.366,224.723h-0.876v-6.875h2.952c1.8,0,2.407,0.686,2.407,1.895c0,1.317-0.939,1.837-2.121,1.935l2.031,3.046h-0.996
				l-1.934-3.046h-1.464V224.723L213.366,224.723z M219.79,221.293c0-2.899-2.122-5.027-5.054-5.027
				c-2.926,0-5.057,2.128-5.057,5.027c0,2.957,2.137,5.059,5.057,5.059C217.668,226.352,219.79,224.25,219.79,221.293
				 M208.734,221.293c0-3.284,2.693-5.993,6.002-5.993c3.31,0,6.006,2.709,6.006,5.993c0,3.33-2.696,6.029-6.006,6.029
				C211.428,227.322,208.734,224.623,208.734,221.293"/>
		</g>
		<path fill="#820A1E" d="M275.116,277.771c0.964,0,2.292,0.146,2.292-1.132c0-0.97-0.809-1.089-1.608-1.089h-1.888v2.221H275.116z
			 M273.912,281.62h-0.876v-6.869h2.952c1.8,0,2.406,0.681,2.406,1.888c0,1.324-0.944,1.843-2.126,1.941l2.037,3.04h-0.995
			l-1.94-3.04h-1.464L273.912,281.62L273.912,281.62z M280.336,278.191c0-2.9-2.122-5.028-5.054-5.028
			c-2.926,0-5.061,2.128-5.061,5.028c0,2.962,2.135,5.063,5.061,5.063C278.214,283.255,280.336,281.153,280.336,278.191
			 M269.278,278.191c0-3.28,2.693-5.993,6.004-5.993c3.31,0,6.002,2.713,6.002,5.993c0,3.336-2.692,6.033-6.002,6.033
			C271.972,284.225,269.278,281.527,269.278,278.191"/>
		<g>
			<polygon fill="#820A1E" points="-62.244,266.772 -67.175,266.772 -67.175,294.377 -50.015,294.377 -50.015,289.813 
				-62.244,289.813 			"/>
			<path fill="#820A1E" d="M-37.788,274.304c-7.333,0-9.944,5.423-9.944,10.496c0,6.288,3.698,10.2,9.654,10.2
				c6.022,0,9.909-4.104,9.909-10.459C-28.168,279.592-30.696,274.304-37.788,274.304z M-38.005,291.124
				c-4.484,0-4.829-5.011-4.829-6.547c0-6.122,4.205-6.433,5.047-6.433c2.955,0,4.65,2.293,4.65,6.287
				C-33.137,289.365-35.652,291.124-38.005,291.124z"/>
			<polygon fill="#820A1E" points="-16.062,288.131 -21.433,274.777 -26.697,274.777 -18.497,294.377 -14.167,294.377 
				-5.575,274.777 -10.835,274.777 			"/>
			<path fill="#820A1E" d="M5.673,274.304c-2.189,0-3.999,0.493-5.369,1.469c-3.449,2.397-3.889,6.143-3.889,9.138
				c0,6.458,3.249,10.012,9.146,10.012c3.67,0,5.716-1.446,6.782-2.65c1.422-1.541,1.612-3.155,1.736-4.197l0.088-0.737H9.405
				l-0.065,0.591c-0.309,2.782-2.41,3.196-3.634,3.196c-1.333,0-2.391-0.394-3.148-1.167c-0.873-0.888-1.361-2.293-1.425-4.098
				h12.47l0.648-0.006l0.016-0.644c0.049-1.981,0.148-6.096-2.364-8.669C10.459,275.058,8.36,274.304,5.673,274.304z M5.6,278.071
				c1.193,0,2.12,0.327,2.741,0.965c0.66,0.675,1.034,1.733,1.101,3.098H1.316C1.637,279.155,3.688,278.071,5.6,278.071z"/>
			<path fill="#820A1E" d="M35.413,269.542l-4.71,1.525v3.637h-3.239v3.84h3.239v11.528c0,4.021,2.671,4.559,5.286,4.559
				c1.442,0,2.472-0.144,2.953-0.228l0.549-0.093v-4.067l-0.827,0.207c-0.223,0.057-0.822,0.161-1.476,0.161
				c-1.774,0-1.774-0.82-1.774-1.774v-10.293h4.073v-3.84h-4.073V269.542L35.413,269.542z"/>
			<path fill="#820A1E" d="M52.072,274.304c-7.336,0-9.946,5.423-9.946,10.496c0,6.288,3.7,10.2,9.655,10.2
				c6.02,0,9.906-4.104,9.906-10.459C61.688,279.592,59.162,274.304,52.072,274.304z M51.854,291.124
				c-4.482,0-4.83-5.011-4.83-6.547c0-6.122,4.208-6.433,5.048-6.433c2.951,0,4.651,2.293,4.651,6.287
				C56.723,289.365,54.209,291.124,51.854,291.124z"/>
			<path fill="#820A1E" d="M83.161,269.542l-4.714,1.525v3.637h-3.239v3.84h3.239v11.528c0,4.021,2.672,4.559,5.288,4.559
				c1.442,0,2.474-0.144,2.955-0.228l0.546-0.093v-4.067l-0.824,0.207c-0.26,0.063-0.867,0.161-1.479,0.161
				c-1.774,0-1.774-0.82-1.774-1.774v-10.293h4.077v-3.84h-4.077v-5.162H83.161z"/>
			<path fill="#820A1E" d="M101.276,274.45c-2.079,0-3.938,0.67-5.27,1.846v-9.487h-4.782v27.568h4.782v-10.35
				c0-0.996,0-2.661,0.501-3.538c0.337-0.627,1.383-2.091,3.708-2.091c3.02,0,3.269,2.324,3.269,4.504v11.471h4.818v-12.094
				c0-2.651-0.25-3.678-0.684-4.545C106.475,275.317,103.589,274.45,101.276,274.45z"/>
			<path fill="#820A1E" d="M122.494,274.304c-2.188,0-3.998,0.499-5.364,1.469c-3.45,2.397-3.89,6.143-3.89,9.138
				c0,6.458,3.246,10.012,9.146,10.012c3.672,0,5.721-1.446,6.78-2.65c1.422-1.541,1.614-3.155,1.738-4.197l0.086-0.737h-4.76
				l-0.063,0.586c-0.316,2.787-2.418,3.201-3.636,3.201c-1.334,0-2.396-0.394-3.152-1.167c-0.876-0.888-1.362-2.293-1.42-4.093
				h12.464l0.648-0.005l0.016-0.649c0.05-1.977,0.148-6.096-2.362-8.664C127.278,275.058,125.182,274.304,122.494,274.304z
				 M122.422,278.071c1.194,0,2.116,0.327,2.744,0.965c0.654,0.675,1.032,1.733,1.096,3.098h-8.122
				C118.462,279.155,120.512,278.071,122.422,278.071z"/>
			<path fill="#820A1E" d="M155.556,274.714c-0.827,0.114-2.46,0.504-3.664,1.77l-0.033-1.706h-4.836l0.063,0.721
				c0.12,1.313,0.176,2.542,0.176,3.653v15.222h4.79v-10.382c0-3.455,1.254-4.866,4.32-4.866c0.368,0,0.66,0,0.888,0.03
				c0.198,0.027,0.389,0.057,0.51,0.11l0.906,0.347v-4.944l-0.622-0.037C157.436,274.601,156.626,274.56,155.556,274.714z"/>
			<path fill="#820A1E" d="M170.28,274.304c-2.188,0-3.998,0.499-5.368,1.469c-3.45,2.397-3.89,6.143-3.89,9.138
				c0,6.458,3.25,10.012,9.146,10.012c3.678,0,5.722-1.446,6.78-2.65c1.426-1.541,1.616-3.155,1.737-4.197l0.091-0.737h-4.761
				l-0.065,0.586c-0.313,2.787-2.412,3.201-3.636,3.201c-1.334,0-2.393-0.394-3.15-1.167c-0.874-0.888-1.364-2.293-1.422-4.093
				h12.468l0.648-0.005l0.016-0.649c0.048-1.977,0.148-6.096-2.362-8.664C175.066,275.058,172.97,274.304,170.28,274.304z
				 M170.21,278.071c1.19,0,2.116,0.327,2.742,0.965c0.656,0.675,1.034,1.733,1.096,3.098h-8.124
				C166.246,279.155,168.298,278.071,170.21,278.071z"/>
			<path fill="#820A1E" d="M189.19,281.808c-1.106-0.297-2.022-0.629-2.022-1.665c0-1.708,1.916-1.963,3.052-1.963
				c1.152,0,1.937,0.229,2.38,0.701c0.356,0.368,0.511,0.888,0.484,1.599l-0.026,0.688h4.851v-0.664c0-0.793,0-1.784-0.55-2.951
				c-1.177-2.365-4.479-3.207-7.175-3.207c-4.663,0-7.798,2.49-7.798,6.194c0,4.39,3.832,5.262,7.538,6.112
				c2.87,0.648,3.486,0.902,3.486,2.076c0,0.467-0.16,0.943-0.437,1.297c-0.518,0.652-1.292,0.918-2.682,0.918
				c-1.246,0-2.158-0.29-2.714-0.861c-0.57-0.587-0.638-1.365-0.626-1.77l0.02-0.686h-4.947l-0.004,0.66
				c-0.017,1.867,0.544,3.382,1.665,4.513c1.715,1.729,4.282,2.092,6.135,2.092c2.452,0,4.286-0.427,5.777-1.339
				c1.692-1.054,2.786-3.087,2.786-5.188c0-1.541-0.565-2.916-1.598-3.864C195.568,283.354,194.428,283.052,189.19,281.808z"/>
			<path fill="#820A1E" d="M213.502,287.613c-0.032,0.778-0.362,3.324-3.304,3.324c-0.956,0-3.886,0-3.886-6.577
				c0-4.125,1.374-6.216,4.067-6.216c2.422,0,2.864,1.831,2.982,3.216l0.052,0.607h4.778l-0.053-0.711
				c-0.071-1.021-0.197-2.729-1.68-4.457c-1.884-2.251-4.904-2.496-6.116-2.496c-4.136,0-8.966,2.762-8.966,10.533
				c0,4.187,1.338,6.24,2.36,7.435c2.132,2.33,5.256,2.584,6.496,2.584c4.481,0,7.792-2.953,8.052-7.176l0.042-0.705h-4.8
				L213.502,287.613z"/>
			<path fill="#820A1E" d="M239.178,290.289v-15.512h-4.861v11.004c0,0.841,0,2.116-0.643,3.045
				c-0.976,1.443-2.578,1.748-3.746,1.748c-2.844,0-3.237-1.623-3.237-3.377v-12.426h-4.814v12.935c0,4.29,2.724,6.848,7.29,6.848
				c2.634,0,4.192-0.847,5.202-1.908l0.042,1.728l4.908-0.012l-0.026-0.685C239.256,292.671,239.178,290.653,239.178,290.289z"/>
			<path fill="#820A1E" d="M253.512,274.304c-2.189,0-3.998,0.499-5.369,1.469c-3.45,2.397-3.891,6.143-3.891,9.138
				c0,6.458,3.252,10.012,9.146,10.012c3.68,0,5.722-1.446,6.779-2.65c1.429-1.541,1.62-3.155,1.74-4.197l0.088-0.737h-4.758
				l-0.066,0.586c-0.313,2.787-2.413,3.201-3.638,3.201c-1.334,0-2.392-0.394-3.149-1.167c-0.87-0.888-1.364-2.293-1.421-4.093
				h12.467l0.647-0.005l0.017-0.649c0.052-1.977,0.149-6.096-2.36-8.664C258.296,275.058,256.2,274.304,253.512,274.304z
				 M253.44,278.071c1.193,0,2.115,0.327,2.743,0.965c0.654,0.675,1.032,1.733,1.095,3.098h-8.124
				C249.477,279.155,251.53,278.071,253.44,278.071z"/>
			<rect x="265.13" y="289.205" fill="#820A1E" width="5.456" height="5.795"/>
		</g>
	</g>
</g>
<image overflow="visible" width="400" height="400" xlink:href="9542645C.jpg"  transform="matrix(1 0 0 1 -592.5 -182.0127)">
</image>
</svg>
